<svg xmlns="http://www.w3.org/2000/svg" width="2458" height="512" fill="none" viewBox="0 0 2458 512">
  <path fill="#47A7F6" d="M256 512c141.385 0 256-114.615 256-256S397.385 0 256 0 0 114.615 0 256s114.615 256 256 256Z"/>
  <path fill="#fff" stroke="#fff" stroke-width="6" d="M362.808 368.808H244.123c-65.424 0-118.666-53.246-118.666-118.686 0-65.419 53.242-118.665 118.667-118.665 65.441 0 118.684 53.246 118.684 118.665v118.686Z"/>
  <path fill="#1E1E1E" d="m572.182 216-25.455-93.091h11.455l19.454 75.818h.909l19.819-75.818h12.727l19.818 75.818h.909l19.455-75.818h11.454L637.273 216h-11.637l-20.545-74.182h-.727L583.818 216h-11.636Zm104.591 0v-93.091h56.182v10h-44.91v31.455h42v10h-42V206h45.637v10h-56.909Zm76.5 0v-93.091h11.272V206h43.273v10h-54.545Zm72 0v-93.091h11.272V206h43.273v10h-54.545Zm143.284-64h-11.273c-.667-3.242-1.833-6.091-3.5-8.545a23.28 23.28 0 0 0-6-6.182c-2.333-1.697-4.924-2.97-7.773-3.818-2.848-.849-5.818-1.273-8.909-1.273-5.636 0-10.742 1.424-15.318 4.273-4.545 2.848-8.167 7.045-10.864 12.59-2.666 5.546-4 12.349-4 20.41 0 8.06 1.334 14.863 4 20.409 2.697 5.545 6.319 9.742 10.864 12.591 4.576 2.848 9.682 4.272 15.318 4.272 3.091 0 6.061-.424 8.909-1.272 2.849-.849 5.44-2.107 7.773-3.773a23.946 23.946 0 0 0 6-6.227c1.667-2.485 2.833-5.334 3.5-8.546h11.273c-.849 4.758-2.394 9.015-4.637 12.773-2.242 3.757-5.03 6.954-8.363 9.591-3.334 2.606-7.076 4.591-11.227 5.954-4.122 1.364-8.531 2.046-13.228 2.046-7.939 0-15-1.94-21.182-5.818-6.181-3.879-11.045-9.394-14.59-16.546-3.546-7.151-5.319-15.636-5.319-25.454 0-9.819 1.773-18.303 5.319-25.455 3.545-7.152 8.409-12.667 14.59-16.545 6.182-3.879 13.243-5.819 21.182-5.819 4.697 0 9.106.682 13.228 2.046 4.151 1.363 7.893 3.363 11.227 6 3.333 2.606 6.121 5.788 8.363 9.545 2.243 3.728 3.788 7.985 4.637 12.773Zm96.763 17.455c0 9.818-1.77 18.303-5.32 25.454-3.55 7.152-8.41 12.667-14.59 16.546-6.18 3.878-13.24 5.818-21.18 5.818-7.94 0-15-1.94-21.18-5.818-6.186-3.879-11.05-9.394-14.595-16.546-3.546-7.151-5.319-15.636-5.319-25.454 0-9.819 1.773-18.303 5.319-25.455 3.545-7.152 8.409-12.667 14.595-16.545 6.18-3.879 13.24-5.819 21.18-5.819 7.94 0 15 1.94 21.18 5.819 6.18 3.878 11.04 9.393 14.59 16.545 3.55 7.152 5.32 15.636 5.32 25.455Zm-10.91 0c0-8.061-1.35-14.864-4.05-20.41-2.66-5.545-6.28-9.742-10.86-12.59-4.55-2.849-9.64-4.273-15.27-4.273-5.64 0-10.75 1.424-15.32 4.273-4.55 2.848-8.17 7.045-10.865 12.59-2.666 5.546-4 12.349-4 20.41 0 8.06 1.334 14.863 4 20.409 2.695 5.545 6.315 9.742 10.865 12.591 4.57 2.848 9.68 4.272 15.32 4.272 5.63 0 10.72-1.424 15.27-4.272 4.58-2.849 8.2-7.046 10.86-12.591 2.7-5.546 4.05-12.349 4.05-20.409Zm29.86-46.546h13.46l31.63 77.273h1.09l31.64-77.273h13.46V216H1165v-70.727h-.91L1135 216h-10.18l-29.09-70.727h-.91V216h-10.55v-93.091ZM1198.15 216v-93.091h56.18v10h-44.91v31.455h42v10h-42V206h45.64v10h-56.91Zm82.86.727c-2.24 0-4.17-.803-5.77-2.409-1.61-1.606-2.41-3.53-2.41-5.773 0-2.242.8-4.166 2.41-5.772 1.6-1.606 3.53-2.409 5.77-2.409 2.24 0 4.17.803 5.77 2.409 1.61 1.606 2.41 3.53 2.41 5.772a7.77 7.77 0 0 1-1.13 4.091 8.537 8.537 0 0 1-2.96 3c-1.21.728-2.57 1.091-4.09 1.091ZM1384.81 152h-11.28c-.66-3.242-1.83-6.091-3.5-8.545a23.097 23.097 0 0 0-6-6.182c-2.33-1.697-4.92-2.97-7.77-3.818-2.85-.849-5.82-1.273-8.91-1.273-5.63 0-10.74 1.424-15.32 4.273-4.54 2.848-8.16 7.045-10.86 12.59-2.67 5.546-4 12.349-4 20.41 0 8.06 1.33 14.863 4 20.409 2.7 5.545 6.32 9.742 10.86 12.591 4.58 2.848 9.69 4.272 15.32 4.272 3.09 0 6.06-.424 8.91-1.272 2.85-.849 5.44-2.107 7.77-3.773a23.754 23.754 0 0 0 6-6.227c1.67-2.485 2.84-5.334 3.5-8.546h11.28c-.85 4.758-2.4 9.015-4.64 12.773-2.24 3.757-5.03 6.954-8.36 9.591-3.34 2.606-7.08 4.591-11.23 5.954-4.12 1.364-8.53 2.046-13.23 2.046-7.94 0-15-1.94-21.18-5.818-6.18-3.879-11.04-9.394-14.59-16.546-3.55-7.151-5.32-15.636-5.32-25.454 0-9.819 1.77-18.303 5.32-25.455 3.55-7.152 8.41-12.667 14.59-16.545 6.18-3.879 13.24-5.819 21.18-5.819 4.7 0 9.11.682 13.23 2.046 4.15 1.363 7.89 3.363 11.23 6 3.33 2.606 6.12 5.788 8.36 9.545 2.24 3.728 3.79 7.985 4.64 12.773Zm22.03 64h-11.82l34.18-93.091h11.64L1475.02 216h-11.82l-27.81-78.364h-.73L1406.84 216Zm4.36-36.364h47.64v10h-47.64v-10ZM1489.52 216v-93.091h31.46c7.27 0 13.24 1.243 17.91 3.727 4.66 2.455 8.12 5.834 10.36 10.137 2.24 4.303 3.36 9.197 3.36 14.682 0 5.484-1.12 10.348-3.36 14.59-2.24 4.243-5.68 7.576-10.32 10-4.63 2.394-10.56 3.591-17.77 3.591h-25.46v-10.181h25.1c4.97 0 8.97-.728 12-2.182 3.06-1.455 5.27-3.515 6.63-6.182 1.4-2.697 2.09-5.909 2.09-9.636 0-3.728-.69-6.985-2.09-9.773-1.39-2.788-3.62-4.94-6.68-6.455-3.06-1.545-7.11-2.318-12.14-2.318h-19.81V216h-11.28Zm43.82-41.818L1556.25 216h-13.09l-22.55-41.818h12.73ZM1571.4 216v-93.091h56.18v10h-44.91v31.455h42v10h-42V206h45.64v10h-56.91Z"/>
</svg>
