<?xml version="1.0" encoding="utf-8"?>
<!-- Generator: Adobe Illustrator 27.0.1, SVG Export Plug-In . SVG Version: 6.00 Build 0)  -->
<svg version="1.0" id="Layer_1" xmlns="http://www.w3.org/2000/svg" xmlns:xlink="http://www.w3.org/1999/xlink" x="0px" y="0px"
	 viewBox="0 0 2458 194.535" style="enable-background:new 0 0 2458 194.535;" xml:space="preserve">
<g>
	<path d="M126.823,2.687h27.945l46.215,139.989L245.855,3.224h34.662l-65.561,189.43h-28.482L140.258,57.501L94.042,192.654H65.561
		L0,3.224h35.736l44.872,139.452L126.823,2.687z"/>
	<path d="M453.822,32.781H347.419v48.902h94.312v29.556h-94.312v50.515h107.747v29.556H314.37V3.224h139.453V32.781z"/>
	<path d="M494.394,3.224h33.049v157.992h98.879v30.094H494.394V3.224z"/>
	<path d="M660.715,3.224h33.049v157.992h98.879v30.094H660.715V3.224z"/>
	<path d="M903.613,194.535c-54.813,0-95.655-42.723-95.655-96.999C807.958,43.797,847.994,0,904.957,0
		c34.662,0,55.62,12.091,73.623,29.288l-21.227,24.451c-15.047-13.972-31.168-23.376-52.664-23.376
		c-36.005,0-62.068,29.556-62.068,66.636c0,37.079,26.063,67.173,62.068,67.173c23.108,0,37.886-9.403,54.008-24.451l21.227,21.496
		C960.308,181.637,938.812,194.535,903.613,194.535z"/>
	<path d="M1098.953,194.535c-57.769,0-98.073-43.797-98.073-96.999S1041.721,0,1099.49,0c57.77,0,98.073,43.797,98.073,96.999
		C1197.563,150.2,1156.722,194.535,1098.953,194.535z M1098.953,30.363c-37.349,0-63.412,29.825-63.412,66.636
		c0,36.811,26.601,67.173,63.949,67.173c37.349,0,63.412-29.824,63.412-66.636S1136.301,30.363,1098.953,30.363z"/>
	<path d="M1330.029,145.094h-1.076l-58.844-88.131V191.31h-32.512V3.224h35.199l57.232,88.938l57.231-88.938h35.199V191.31h-33.049
		V56.426L1330.029,145.094z"/>
	<path d="M1610.275,32.781h-106.402v48.902h94.311v29.556h-94.311v50.515h107.746v29.556h-140.796V3.224h139.452V32.781z"/>
	<path d="M1644.935,191.31v-36.811h35.737v36.811H1644.935z"/>
	<path d="M1799.704,194.535c-54.814,0-95.656-42.723-95.656-96.999c0-53.739,40.036-97.536,96.999-97.536
		c34.662,0,55.62,12.091,73.623,29.288l-21.227,24.451c-15.046-13.972-31.168-23.376-52.664-23.376
		c-36.005,0-62.068,29.556-62.068,66.636c0,37.079,26.063,67.173,62.068,67.173c23.108,0,37.886-9.403,54.008-24.451l21.226,21.496
		C1856.398,181.637,1834.903,194.535,1799.704,194.535z"/>
	<path d="M2090.697,191.31h-34.929l-19.077-45.409h-88.938l-19.345,45.409h-33.856l82.759-189.429h30.63L2090.697,191.31z
		 M1992.087,41.379l-32.244,75.234h64.756L1992.087,41.379z"/>
	<path d="M2243.583,191.31l-46.215-65.561h-41.379v65.561h-33.05V3.224h83.833c43.259,0,69.86,22.839,69.86,59.65
		c0,31.169-18.54,49.977-44.872,57.232l50.783,71.204H2243.583z M2204.086,33.318h-48.096v63.143h48.365
		c23.645,0,38.692-12.36,38.692-31.705C2243.046,44.066,2228.536,33.318,2204.086,33.318z"/>
	<path d="M2456.656,32.781h-106.402v48.902h94.311v29.556h-94.311v50.515H2458v29.556h-140.796V3.224h139.452V32.781z"/>
</g>
</svg>
