<svg xmlns="http://www.w3.org/2000/svg" width="175" height="137" fill="none" viewBox="0 0 175 137">
  <path fill="red" d="M.078 1.43c4.427.52 8.138.911 11.133 1.172 3.125.13 5.664.325 7.617.586 2.344.26 4.167.39 5.469.39 1.432.13 3.58.065 6.445-.195 2.474-.26 5.794-.586 9.961-.977C45 2.016 50.47 1.43 57.11.648c-2.994 2.605-5.403 5.144-7.226 7.618-1.693 2.343-2.995 4.427-3.906 6.25-1.172 2.213-1.888 4.296-2.149 6.25-.52 3.125-.976 7.422-1.367 12.89-.26 5.339-.52 11.198-.781 17.578-.26 6.38-.39 12.956-.39 19.727 0 6.77.064 13.216.194 19.336.26 5.99.651 11.328 1.172 16.015.651 4.688 1.433 8.073 2.344 10.157a197.283 197.283 0 0 0 4.102 7.031c1.302 1.953 2.864 3.971 4.687 6.055 1.823 2.083 3.906 3.776 6.25 5.078-7.682-.391-13.802-.586-18.36-.586h-7.03c-2.084 0-4.753.13-8.008.391-2.735.26-6.185.52-10.352.781-4.167.26-9.18.651-15.039 1.172 2.995-3.256 5.339-6.381 7.031-9.375 1.693-2.995 3.06-5.599 4.102-7.813 1.172-2.604 1.953-5.078 2.344-7.422.52-3.385.911-7.552 1.171-12.5.391-5.078.651-10.482.782-16.21.13-5.86.13-11.784 0-17.774 0-6.12-.13-11.98-.39-17.578-.261-5.6-.652-10.677-1.173-15.235-.39-4.557-.911-8.203-1.562-10.937-.39-1.693-1.172-3.58-2.344-5.664-1.042-1.823-2.474-3.906-4.297-6.25C5.221 7.159 2.943 4.424.078 1.43Zm52.93 1.172c9.114.26 16.666.455 22.656.586h83.398c.261 2.604.456 5.143.586 7.617.261 2.343.391 4.427.391 6.25a85.64 85.64 0 0 1-.195 6.054 111.71 111.71 0 0 1-.586 5.86 328.703 328.703 0 0 0-.781 5.86 40.866 40.866 0 0 1-1.368 6.444c-1.823-7.03-4.297-12.37-7.421-16.015-2.995-3.646-6.055-6.315-9.18-8.008-3.646-1.953-7.487-2.995-11.524-3.125-5.338.26-9.505.716-12.5 1.367-2.994.651-5.338 1.563-7.031 2.735-1.693 1.171-2.995 2.539-3.906 4.101a155.188 155.188 0 0 0-2.539 4.883c-.781 1.562-1.498 3.971-2.149 7.227-.651 2.734-1.302 6.445-1.953 11.132-.52 4.688-1.107 10.742-1.758 18.164 3.516-1.041 6.316-2.018 8.399-2.93 2.213-.91 3.971-1.692 5.273-2.343 1.433-.781 2.474-1.497 3.125-2.148.521-.782 1.302-2.214 2.344-4.297a845.778 845.778 0 0 0 3.125-7.422c1.432-3.125 3.125-7.422 5.078-12.89.261 5.989.391 11.002.391 15.038 0 3.906.065 7.097.195 9.57 0 2.865.065 5.144.195 6.836v18.555c.131 4.557.326 10.352.586 17.383-1.562-4.818-2.994-8.594-4.297-11.328-1.171-2.865-2.213-5.013-3.124-6.445-1.042-1.693-1.954-2.865-2.735-3.516-.911-.26-2.148-.521-3.711-.781-1.432-.13-3.255-.196-5.469-.196-2.083 0-4.752.326-8.007.977-.391 7.161-.456 12.956-.196 17.383.39 4.297.912 7.617 1.563 9.961.651 2.734 1.432 4.687 2.344 5.859 1.171 1.172 3.515 2.148 7.031 2.93 3.515.651 7.487.911 11.914.781 4.557-.26 9.18-1.042 13.867-2.344 4.688-1.302 8.854-3.45 12.5-6.445 2.734-2.474 5.664-5.599 8.789-9.375 2.604-3.255 5.469-7.357 8.594-12.305 3.255-4.948 6.445-10.937 9.57-17.969-.521 5.86-.911 10.743-1.172 14.649-.13 3.776-.325 6.836-.586 9.18-.26 2.734-.455 4.817-.586 6.25 0 1.562-.195 3.776-.586 6.64-.26 2.474-.716 5.86-1.367 10.156-.521 4.167-1.237 9.506-2.148 16.016-6.12.13-11.914.26-17.383.391-5.469 0-10.286.065-14.453.195-4.948.13-9.505.26-13.672.391-4.297 0-9.049.195-14.258.586-4.557.26-9.96.651-16.21 1.171-6.12.521-12.891 1.237-20.313 2.149.65-8.854 1.107-17.188 1.367-25 .39-7.943.651-14.909.781-20.899.13-7.03.13-13.541 0-19.53.651-14.975.39-27.084-.781-36.329-1.172-9.245-2.54-15.17-4.102-17.773-.78-.912-1.888-2.019-3.32-3.32-1.172-1.042-2.8-2.28-4.883-3.712-2.083-1.432-4.687-3.06-7.812-4.882Z"/>
</svg>
