<svg height="248pt" preserveAspectRatio="xMidYMid meet" viewBox="0 0 2250 248" width="2250pt" xmlns="http://www.w3.org/2000/svg"><g transform="matrix(.1 0 0 -.1 0 248)"><path d="m8132 2129c-199-35-396-149-517-298-328-407-243-1029 180-1305 90-60 168-95 270-122 56-15 103-19 235-18 150 1 173 3 255 28 143 43 293 134 390 235l29 32-96 96-97 97-38-32c-145-122-259-172-408-179-179-9-308 38-425 155-288 288-213 817 141 989 204 99 449 63 648-98 33-27 65-49 70-49s50 48 101 106l92 106-24 25c-79 85-244 177-383 214-91 24-331 35-423 18z"/><path d="m9850 2121c-230-49-422-179-550-374-308-467-108-1113 404-1305 117-44 215-62 339-62 313 1 582 142 747 393 198 300 194 697-10 997-123 181-327 311-558 356-100 19-268 17-372-5zm385-291c143-54 253-155 319-295 48-99 61-164 60-290 0-95-4-121-30-195-68-194-208-327-394-375-91-24-252-16-335 15-143 54-253 155-319 295-48 99-61 164-60 290 0 95 4 121 30 195 66 188 198 318 379 372 87 26 267 20 350-12z"/><path d="m16252 2129c-199-35-396-149-517-298-328-407-243-1029 180-1305 90-60 168-95 270-122 56-15 103-19 235-18 150 1 173 3 255 28 143 43 293 134 390 235l29 32-96 96-97 97-38-32c-145-122-259-172-408-179-179-9-308 38-425 155-288 288-213 817 141 989 204 99 449 63 648-98 33-27 65-49 70-49s50 48 101 106l92 106-24 25c-79 85-244 177-383 214-91 24-331 35-423 18z"/><path d="m93 2098c4-13 136-399 295-858l290-835h133 133l205 602c113 331 209 599 212 595s98-276 210-604l204-598h133c72 0 132 2 132 3 0 2 133 387 295 856s295 854 295 857c0 2-70 4-155 4-152 0-156-1-165-22-6-13-96-291-201-618s-194-598-197-602c-4-4-101 274-216 618l-208 625-126-3-125-3-206-617c-113-339-209-619-212-622s-96 274-206 617l-200 622-163 3-162 3z"/><path d="m17987 2088c-8-18-168-384-357-813-188-429-351-799-361-823l-19-43 157 3 157 3 86 200 86 200 402 3 402 2 9-22c5-13 43-105 86-206l77-182h159c88 0 159 1 159 3s-168 386-373 853l-373 849-142 3-142 3zm298-671c76-174 136-320 133-322-3-3-131-4-286-3l-281 3 141 328c77 181 144 325 148 320 4-4 70-151 145-326z"/><path d="m2940 1260v-850h640 640v135 135h-490-490v225 225l428 2 427 3 3 133 3 132h-431-430v220 220h485 485v135 135h-635-635z"/><path d="m4570 1260v-850h600 600v135 135h-450-450v715 715h-150-150z"/><path d="m6080 1260v-850h600 600v135 135h-450-450v715 715h-150-150z"/><path d="m11300 1260v-850h150 150v602 603l259-393c143-215 265-392 270-392 6 0 130 179 276 397l265 398v-608-607h150 150v850 850l-162-2-162-3-255-397-255-397-18 27c-10 15-125 194-256 397l-238 370-162 3-162 2z"/><path d="m13420 1260v-850h640 640v135 135h-490-490v225 225l428 2 427 3 3 133 3 132h-431-430v220 220h485 485v135 135h-635-635z"/><path d="m19330 1261v-851h150 150v295 295h188 187l205-295 205-294h178c97-1 177 1 177 3 0 3-102 147-226 321-124 175-224 318-222 319s26 11 53 21c121 44 237 141 289 243 75 148 74 357-1 506-40 79-133 169-216 210-143 69-142 69-654 73l-463 4zm797 569c105-12 174-41 222-96 45-51 61-100 61-186 0-116-63-203-183-251-47-19-77-21-324-25l-273-4v286 286h208c114 0 244-4 289-10z"/><path d="m21090 1260v-850h640 640v135 135h-490-490v225 225l428 2 427 3 3 133 3 132h-431-430v220 220h485 485v135 135h-635-635z"/><path d="m14997 743c-4-3-7-80-7-170v-163h165 165v170 170h-158c-87 0-162-3-165-7z"/></g></svg>